<svg version="1.1" xmlns="http://www.w3.org/2000/svg" viewBox="0 0 472 455" width="1416" height="1365">
  <!-- svg-source:excalidraw -->
  
  <defs>
    <style>
      @font-face {
        font-family: "Virgil";
        src: url("https://excalidraw.com/Virgil.woff2");
      }
      @font-face {
        font-family: "Cascadia";
        src: url("https://excalidraw.com/Cascadia.woff2");
      }
    </style>
  </defs>
  <g stroke-linecap="round" transform="translate(10 10) rotate(0 226 217.5)"><path d="M108.75 0 L343.25 0 L368.74 1.7 L380.21 3.82 L390.83 6.8 L400.6 10.62 L409.52 15.29 L417.59 20.82 L424.81 27.19 L431.18 34.41 L436.71 42.48 L441.38 51.4 L445.2 61.17 L448.18 71.79 L451.58 95.58 L451.58 339.42 L448.18 363.21 L445.2 373.83 L441.38 383.6 L436.71 392.52 L431.18 400.59 L424.81 407.81 L417.59 414.18 L409.52 419.71 L400.6 424.38 L390.83 428.2 L380.21 431.18 L356.42 434.58 L95.58 434.58 L71.79 431.18 L61.17 428.2 L51.4 424.38 L42.48 419.71 L34.41 414.18 L27.19 407.81 L20.82 400.59 L15.29 392.52 L10.62 383.6 L6.8 373.83 L3.82 363.21 L0.42 339.42 L0 108.75 L0.42 95.58 L3.82 71.79 L6.8 61.17 L10.62 51.4 L15.29 42.48 L20.82 34.41 L27.19 27.19 L34.41 20.82 L42.48 15.29 L51.4 10.62 L61.17 6.8 L71.79 3.82 L83.26 1.7 L108.75 0" stroke="none" stroke-width="0" fill="#cbf3f0"></path><path d="M108.75 0 M108.75 0 C192.44 0, 276.13 0, 343.25 0 M108.75 0 C188.44 0, 268.13 0, 343.25 0 M343.25 0 C415.75 0, 452 36.25, 452 108.75 M343.25 0 C415.75 0, 452 36.25, 452 108.75 M452 108.75 C452 153.19, 452 197.62, 452 326.25 M452 108.75 C452 173.91, 452 239.06, 452 326.25 M452 326.25 C452 398.75, 415.75 435, 343.25 435 M452 326.25 C452 398.75, 415.75 435, 343.25 435 M343.25 435 C270.92 435, 198.59 435, 108.75 435 M343.25 435 C283.84 435, 224.42 435, 108.75 435 M108.75 435 C36.25 435, 0 398.75, 0 326.25 M108.75 435 C36.25 435, 0 398.75, 0 326.25 M0 326.25 C0 280.74, 0 235.24, 0 108.75 M0 326.25 C0 256.94, 0 187.62, 0 108.75 M0 108.75 C0 36.25, 36.25 0, 108.75 0 M0 108.75 C0 36.25, 36.25 0, 108.75 0" stroke="#000" stroke-width="4" fill="none"></path></g><g stroke-linecap="round" transform="translate(52.750030517578125 59.10002136230469) rotate(0 182.39999389648438 51.99999237060547)"><path d="M26 0 L338.8 0 L350.17 1.62 L354.64 3.66 L358.3 6.5 L361.14 10.16 L363.17 14.62 L364.39 19.91 L364.8 78 L363.17 89.37 L361.14 93.84 L358.3 97.5 L354.64 100.34 L350.17 102.37 L338.8 104 L26 104 L14.62 102.37 L10.16 100.34 L6.5 97.5 L3.66 93.84 L1.62 89.37 L0.41 84.09 L0.41 19.91 L1.62 14.62 L3.66 10.16 L6.5 6.5 L10.16 3.66 L14.62 1.62 L26 0" stroke="none" stroke-width="0" fill="#fff"></path><path d="M26 0 M26 0 C130.23 0, 234.46 0, 338.8 0 M26 0 C97.04 0, 168.08 0, 338.8 0 M338.8 0 C356.13 0, 364.8 8.67, 364.8 26 M338.8 0 C356.13 0, 364.8 8.67, 364.8 26 M364.8 26 C364.8 43.77, 364.8 61.53, 364.8 78 M364.8 26 C364.8 37.59, 364.8 49.18, 364.8 78 M364.8 78 C364.8 95.33, 356.13 104, 338.8 104 M364.8 78 C364.8 95.33, 356.13 104, 338.8 104 M338.8 104 C238.75 104, 138.7 104, 26 104 M338.8 104 C259.93 104, 181.06 104, 26 104 M26 104 C8.67 104, 0 95.33, 0 78 M26 104 C8.67 104, 0 95.33, 0 78 M0 78 C0 63.86, 0 49.71, 0 26 M0 78 C0 63.94, 0 49.87, 0 26 M0 26 C0 8.67, 8.67 0, 26 0 M0 26 C0 8.67, 8.67 0, 26 0" stroke="#000" stroke-width="4" fill="none"></path></g><g stroke-linecap="round" transform="translate(51.1500244140625 174.90003204345703) rotate(0 182.39999389648438 51.99999237060547)"><path d="M26 0 L338.8 0 L350.17 1.62 L354.64 3.66 L358.3 6.5 L361.14 10.16 L363.17 14.62 L364.39 19.91 L364.8 78 L363.17 89.37 L361.14 93.84 L358.3 97.5 L354.64 100.34 L350.17 102.37 L338.8 104 L26 104 L14.62 102.37 L10.16 100.34 L6.5 97.5 L3.66 93.84 L1.62 89.37 L0.41 84.09 L0.41 19.91 L1.62 14.62 L3.66 10.16 L6.5 6.5 L10.16 3.66 L14.62 1.62 L26 0" stroke="none" stroke-width="0" fill="#fff"></path><path d="M26 0 M26 0 C149.56 0, 273.12 0, 338.8 0 M26 0 C139.15 0, 252.3 0, 338.8 0 M338.8 0 C356.13 0, 364.8 8.67, 364.8 26 M338.8 0 C356.13 0, 364.8 8.67, 364.8 26 M364.8 26 C364.8 42.04, 364.8 58.09, 364.8 78 M364.8 26 C364.8 42.42, 364.8 58.85, 364.8 78 M364.8 78 C364.8 95.33, 356.13 104, 338.8 104 M364.8 78 C364.8 95.33, 356.13 104, 338.8 104 M338.8 104 C228.8 104, 118.8 104, 26 104 M338.8 104 C262.99 104, 187.18 104, 26 104 M26 104 C8.67 104, 0 95.33, 0 78 M26 104 C8.67 104, 0 95.33, 0 78 M0 78 C0 60.31, 0 42.61, 0 26 M0 78 C0 62.52, 0 47.03, 0 26 M0 26 C0 8.67, 8.67 0, 26 0 M0 26 C0 8.67, 8.67 0, 26 0" stroke="#000" stroke-width="4" fill="none"></path></g><g stroke-linecap="round" transform="translate(51.749969482421875 289.2999954223633) rotate(0 182.39999389648438 51.99999237060547)"><path d="M26 0 L338.8 0 L350.17 1.62 L354.64 3.66 L358.3 6.5 L361.14 10.16 L363.17 14.62 L364.39 19.91 L364.8 78 L363.17 89.37 L361.14 93.84 L358.3 97.5 L354.64 100.34 L350.17 102.37 L338.8 104 L26 104 L14.62 102.37 L10.16 100.34 L6.5 97.5 L3.66 93.84 L1.62 89.37 L0.41 84.09 L0.41 19.91 L1.62 14.62 L3.66 10.16 L6.5 6.5 L10.16 3.66 L14.62 1.62 L26 0" stroke="none" stroke-width="0" fill="#ff9f1c"></path><path d="M26 0 M26 0 C140.36 0, 254.73 0, 338.8 0 M26 0 C147.47 0, 268.95 0, 338.8 0 M338.8 0 C356.13 0, 364.8 8.67, 364.8 26 M338.8 0 C356.13 0, 364.8 8.67, 364.8 26 M364.8 26 C364.8 41.77, 364.8 57.54, 364.8 78 M364.8 26 C364.8 39.48, 364.8 52.97, 364.8 78 M364.8 78 C364.8 95.33, 356.13 104, 338.8 104 M364.8 78 C364.8 95.33, 356.13 104, 338.8 104 M338.8 104 C252.07 104, 165.33 104, 26 104 M338.8 104 C244.31 104, 149.81 104, 26 104 M26 104 C8.67 104, 0 95.33, 0 78 M26 104 C8.67 104, 0 95.33, 0 78 M0 78 C0 57.43, 0 36.85, 0 26 M0 78 C0 66.12, 0 54.24, 0 26 M0 26 C0 8.67, 8.67 0, 26 0 M0 26 C0 8.67, 8.67 0, 26 0" stroke="#000" stroke-width="4" fill="none"></path></g></svg>